<svg width="279" height="67" viewBox="0 0 279 67" fill="none" xmlns="http://www.w3.org/2000/svg">
<path d="M18.944 0.967995C22.4 0.967995 26.912 1.48 32.48 2.504L32.288 9.704C27.04 8.68 22.592 8.168 18.944 8.168C15.232 8.168 12.544 8.904 10.88 10.376C9.28 11.848 8.48 14.088 8.48 17.096V19.592C8.48 21.192 8.672 22.472 9.056 23.432C9.504 24.328 10.272 25.128 11.36 25.832C12.448 26.472 14.08 27.144 16.256 27.848L25.184 30.824C29.472 32.296 32.48 34.248 34.208 36.68C36 39.112 36.896 42.664 36.896 47.336V49.16C36.896 54.856 35.232 59.112 31.904 61.928C28.64 64.744 23.264 66.152 15.776 66.152C12.128 66.152 7.456 65.512 1.76 64.232L1.952 56.84C7.264 58.12 11.808 58.76 15.584 58.76C20.384 58.76 23.776 58.056 25.76 56.648C27.744 55.176 28.736 52.904 28.736 49.832V46.664C28.736 44.424 28.224 42.728 27.2 41.576C26.24 40.36 24.512 39.336 22.016 38.504L12.128 35.24C7.712 33.768 4.64 31.88 2.912 29.576C1.184 27.208 0.32 23.656 0.32 18.92V17.864C0.32 12.296 1.792 8.104 4.736 5.288C7.744 2.408 12.48 0.967995 18.944 0.967995ZM64.058 0.967995C71.61 0.967995 77.21 2.504 80.858 5.576C84.57 8.584 86.426 12.904 86.426 18.536V20.84C86.426 26.856 84.634 31.496 81.05 34.76C77.466 38.024 72.058 39.656 64.826 39.656C61.946 39.656 58.874 39.4 55.61 38.888V65H47.45V1.44799C52.89 1.12799 58.426 0.967995 64.058 0.967995ZM63.866 7.88C61.05 7.88 58.298 7.944 55.61 8.07199V31.88C59.45 32.392 62.394 32.648 64.442 32.648C73.658 32.648 78.266 28.584 78.266 20.456V18.824C78.266 15.176 77.114 12.456 74.81 10.664C72.506 8.808 68.858 7.88 63.866 7.88ZM116.903 2.12L136.199 65H127.367L123.239 50.408H100.103L95.975 65H87.623L106.823 2.12H116.903ZM111.719 9.608L102.119 43.112H121.223L111.719 9.608ZM162.762 0.967995C165.258 0.967995 167.946 1.224 170.826 1.736C173.77 2.184 175.498 2.44 176.01 2.504L175.818 9.704C170.186 8.68 165.834 8.168 162.762 8.168C158.41 8.168 155.274 9.064 153.354 10.856C151.434 12.648 150.474 15.624 150.474 19.784V47.24C150.474 51.4 151.402 54.376 153.258 56.168C155.178 57.896 158.346 58.76 162.762 58.76C165.834 58.76 170.186 58.248 175.818 57.224L176.01 64.616C175.498 64.68 173.77 64.936 170.826 65.384C167.946 65.896 165.258 66.152 162.762 66.152C155.402 66.152 150.154 64.584 147.018 61.448C143.882 58.312 142.314 53.416 142.314 46.76V20.36C142.314 13.704 143.882 8.808 147.018 5.672C150.154 2.536 155.402 0.967995 162.762 0.967995ZM221.57 2.12V9.512H196.61V29.384H219.65V36.68H196.61V57.608H221.57V65H188.45V2.12H221.57ZM251.748 0.967995C259.3 0.967995 264.868 2.43999 268.452 5.384C272.036 8.328 273.828 12.456 273.828 17.768V20.168C273.828 23.88 272.804 27.176 270.756 30.056C268.708 32.872 265.764 34.856 261.924 36.008L278.244 65H269.124L253.86 37.736C253.348 37.8 252.324 37.832 250.788 37.832C248.228 37.832 245.7 37.736 243.204 37.544V65H235.044V1.352C242.212 1.09599 247.78 0.967995 251.748 0.967995ZM251.556 7.88C249.444 7.88 246.66 7.944 243.204 8.07199V30.728C246.66 31.048 249.54 31.208 251.844 31.208C261.06 31.208 265.668 27.464 265.668 19.976V18.056C265.668 14.6 264.548 12.04 262.308 10.376C260.068 8.712 256.484 7.88 251.556 7.88Z" fill="black"/>
</svg>
